<?xml version="1.0" standalone="no"?>
<!DOCTYPE svg PUBLIC "-//W3C//DTD SVG 20010904//EN"
 "http://www.w3.org/TR/2001/REC-SVG-20010904/DTD/svg10.dtd">
<svg version="1.0" xmlns="http://www.w3.org/2000/svg"
 width="263.000000pt" height="263.000000pt" viewBox="0 0 263.000000 263.000000"
 preserveAspectRatio="xMidYMid meet">
<metadata>
Created by potrace 1.14, written by Peter Selinger 2001-2017
</metadata>
<g transform="translate(0.000000,263.000000) scale(0.100000,-0.100000)"
fill="#000000" stroke="none">
<path d="M1224 2120 c-5 -5 -34 -22 -64 -38 -137 -71 -328 -205 -322 -225 3
-9 0 -9 -9 0 -9 9 -21 3 -52 -25 -22 -20 -47 -46 -56 -56 -9 -10 -24 -27 -34
-38 -9 -10 -22 -37 -28 -61 -10 -37 -9 -47 9 -79 l22 -38 -73 -73 c-83 -85
-137 -144 -137 -151 0 -12 -140 -214 -163 -235 l-26 -24 -86 59 c-47 32 -98
66 -113 74 -15 8 -42 25 -60 38 l-32 23 0 -170 c0 -107 4 -171 10 -171 6 0 10
-5 10 -11 0 -5 -5 -7 -10 -4 -7 4 -10 -68 -9 -219 1 -155 5 -226 12 -226 7 0
7 -4 -1 -12 -8 -8 -12 -47 -12 -110 0 -81 3 -98 15 -98 9 0 20 10 25 23 8 19
9 17 7 -13 -2 -28 -7 -36 -24 -38 -22 -3 -23 -7 -23 -113 l0 -109 159 0 c127
0 160 3 164 14 9 22 -3 54 -22 59 -13 4 -13 5 3 6 15 1 16 4 6 16 -8 10 -9 15
-2 15 13 0 34 -35 26 -43 -3 -3 2 -19 12 -36 18 -31 34 -40 34 -21 0 6 -4 10
-10 10 -5 0 -10 7 -10 16 0 12 6 10 21 -10 20 -25 39 -34 39 -18 0 4 -13 22
-30 40 -35 39 -37 56 -9 75 13 9 16 17 10 22 -6 3 -11 1 -11 -6 0 -10 -3 -10
-12 -1 -17 17 -33 15 -18 -3 8 -10 9 -15 2 -15 -6 0 -16 9 -22 20 -12 22 -85
75 -115 83 -19 4 -19 5 2 6 12 0 23 6 25 12 3 8 10 6 20 -5 9 -9 21 -16 27
-16 6 0 8 -6 5 -14 -3 -7 1 -16 8 -19 10 -3 14 3 14 22 -1 21 3 26 22 24 l23
-3 -21 22 c-26 28 -26 47 -1 24 11 -10 25 -15 31 -11 12 7 40 -12 40 -27 0 -6
-7 -5 -15 2 -9 7 -18 10 -21 7 -3 -3 3 -10 14 -16 10 -6 25 -24 32 -41 9 -22
22 -33 42 -37 22 -4 28 -11 26 -27 -2 -15 -14 -23 -43 -29 -22 -6 -42 -11 -44
-13 -2 -2 6 -15 18 -30 11 -15 21 -33 21 -40 0 -11 23 -14 105 -14 91 0 105 2
98 15 -13 23 -205 216 -210 211 -3 -2 3 -17 12 -33 l17 -28 -20 25 c-12 14
-20 32 -19 41 1 10 -42 65 -96 123 -54 58 -96 110 -93 115 3 5 26 -10 50 -34
35 -33 46 -40 51 -28 3 9 3 18 0 21 -3 3 -5 0 -5 -8 0 -16 -26 4 -41 31 -7 15
-6 17 6 13 8 -4 15 -11 15 -17 0 -6 3 -8 6 -5 3 3 1 15 -5 27 -31 60 -31 61
-20 61 18 0 361 -348 355 -359 -4 -5 -1 -13 5 -17 8 -4 9 -3 5 4 -17 28 10 7
75 -58 38 -38 74 -70 80 -70 6 0 9 -7 5 -15 -4 -11 2 -15 22 -15 23 0 -12 38
-257 279 -156 153 -281 284 -277 289 3 6 15 8 25 5 10 -3 22 0 25 6 14 23 43
9 105 -49 35 -33 60 -60 55 -60 -5 0 5 -9 21 -19 29 -18 171 -149 148 -137 -7
4 -9 -1 -6 -14 3 -11 9 -17 14 -14 15 9 80 -36 72 -49 -3 -7 -3 -9 2 -5 4 4
27 -13 51 -37 40 -41 43 -47 40 -92 -4 -51 15 -86 40 -76 8 3 14 -1 14 -11 0
-14 25 -16 225 -16 143 0 225 4 225 10 0 6 -4 10 -10 10 -5 0 -10 5 -10 10 0
10 7 8 58 -19 20 -10 26 -10 38 6 11 14 13 15 8 2 -5 -15 15 -17 210 -18 119
-1 216 1 216 3 0 3 -18 15 -39 26 -22 11 -46 28 -53 38 -7 11 -27 26 -45 35
-17 9 -34 21 -38 27 -11 17 15 51 44 56 16 4 38 19 50 35 19 26 124 95 214
140 17 10 55 21 82 25 28 4 55 8 60 9 6 1 17 5 25 8 8 3 36 8 63 12 49 7 61
19 27 30 -11 3 -38 22 -61 41 -22 19 -47 34 -55 34 -8 0 -14 4 -14 9 0 14 129
140 160 156 15 8 39 29 52 47 20 28 23 45 23 118 0 74 -3 90 -25 122 -28 42
-56 56 -126 66 l-49 7 -3 55 c-3 43 -11 66 -40 110 -21 30 -44 68 -51 83 -22
42 -128 142 -201 190 -69 45 -69 44 -55 123 4 22 16 36 43 52 39 22 132 109
132 124 0 10 -36 -7 -45 -22 -10 -17 -35 -11 -35 8 0 11 -24 32 -65 57 -36 22
-65 46 -65 53 0 18 20 15 73 -13 26 -14 47 -22 47 -18 0 12 -84 63 -103 63 -8
0 -17 5 -19 11 -2 7 -10 4 -18 -7 -12 -14 -12 -16 -1 -9 10 6 12 4 7 -4 -10
-16 -63 -4 -87 20 -10 10 -14 21 -9 24 15 9 12 25 -5 25 -8 0 -15 5 -15 10 0
6 -4 10 -10 10 -5 0 -10 -7 -10 -16 0 -18 -31 -11 -65 13 -18 14 -17 14 20 8
l40 -7 -25 24 c-14 12 -36 24 -50 25 -14 2 -54 14 -90 28 -63 24 -64 25 -22
20 24 -2 47 -7 51 -9 4 -3 24 -6 44 -8 21 -1 37 -6 37 -10 0 -4 3 -7 8 -6 12
4 125 -34 150 -50 23 -15 39 -11 28 6 -9 14 -210 92 -254 98 -20 3 -44 8 -52
11 -27 10 -171 12 -165 3 3 -5 -7 -5 -24 0 -16 4 -33 4 -37 0z m190 -71 c14
-7 23 -16 20 -20 -3 -5 -14 -3 -25 4 -16 10 -21 9 -29 -3 -8 -12 -10 -11 -10
8 0 25 8 27 44 11z m323 -226 c13 -14 23 -23 23 -19 0 4 14 -1 30 -11 35 -20
37 -29 11 -36 -13 -3 -21 1 -24 15 -3 11 -10 18 -15 14 -10 -6 -73 49 -65 58
10 10 16 7 40 -21z m137 -78 c9 -23 -29 -39 -48 -19 -9 9 -14 20 -11 25 10 15
52 10 59 -6z m-1726 -749 l43 -42 -20 -25 c-14 -16 -19 -18 -15 -6 3 9 2 17
-4 17 -6 0 -12 -5 -14 -11 -2 -6 -12 0 -23 13 -16 18 -16 20 -2 9 9 -8 21 -10
25 -6 4 4 1 10 -5 12 -7 3 -13 13 -13 24 0 11 -10 24 -22 29 -13 5 -17 9 -10
9 7 1 10 6 7 11 -15 24 13 6 53 -34z m52 9 c11 -13 10 -14 -4 -9 -9 3 -16 10
-16 15 0 13 6 11 20 -6z m-79 -97 c11 -11 17 -23 14 -26 -6 -6 -45 28 -45 40
0 14 12 9 31 -14z m656 -75 c6 -16 14 -43 18 -60 9 -43 -8 -43 -51 -2 -34 33
-35 53 -5 76 22 17 25 16 38 -14z m-727 -16 c0 -5 -4 -5 -10 -2 -5 3 -10 14
-10 23 0 15 2 15 10 2 5 -8 10 -19 10 -23z m780 -126 c0 -11 5 -23 10 -26 7
-4 9 3 5 22 -6 26 -5 27 8 10 15 -18 15 -18 20 0 4 15 5 14 6 -4 1 -17 9 -23
41 -28 22 -4 40 -11 40 -16 0 -4 14 -12 32 -17 17 -4 36 -16 42 -27 27 -48 57
-65 112 -65 48 0 57 -4 88 -35 30 -30 42 -35 81 -35 25 0 45 -4 45 -10 0 -5
20 -10 44 -10 24 0 60 -7 80 -15 29 -12 36 -21 36 -43 0 -22 -8 -31 -40 -46
-33 -16 -39 -23 -34 -40 4 -17 3 -18 -5 -6 -10 13 -15 8 -12 -12 1 -9 -19 -14
-113 -27 -38 -6 -73 -8 -78 -5 -5 3 -14 1 -21 -4 -7 -5 -27 -9 -45 -8 -25 1
-37 9 -52 34 -11 18 -28 36 -38 39 -9 3 -24 13 -32 20 -8 8 -30 22 -49 31 -21
11 -42 33 -57 62 -13 25 -28 50 -34 57 -5 7 -15 25 -22 40 -6 15 -19 37 -28
48 -10 11 -24 43 -34 72 -19 61 -19 63 -6 63 6 0 10 -9 10 -19z m-188 -24 c27
-23 74 -117 57 -117 -5 0 -9 6 -9 13 0 8 -10 19 -23 26 -12 6 -31 25 -42 41
-11 17 -26 30 -32 30 -14 0 -17 13 -6 23 11 12 27 7 55 -16z m-76 -44 c17 -16
60 -53 96 -84 65 -58 88 -94 128 -204 12 -33 28 -73 37 -88 16 -31 9 -51 -10
-27 -7 9 -73 72 -147 140 -255 233 -289 270 -239 257 12 -3 18 -3 14 1 -5 6
53 28 80 31 6 1 24 -11 41 -26z m-227 -316 c0 -9 -2 -8 -6 1 -2 6 -10 9 -15 6
-7 -4 -8 -2 -4 5 9 13 26 5 25 -12z m895 -93 c12 -5 13 -10 4 -30 -6 -13 -15
-24 -20 -24 -17 0 -58 33 -58 46 0 14 45 19 74 8z m50 -74 c14 -5 26 -15 26
-21 0 -7 -7 -8 -17 -4 -10 4 -30 10 -45 13 -16 2 -28 8 -28 13 0 12 32 11 64
-1z m-400 -70 c-6 -6 -10 -2 -11 12 -2 16 1 18 10 9 7 -7 8 -14 1 -21z m-425
-27 c-1 -22 -2 -23 -6 -8 -3 11 -10 23 -17 27 -7 5 -5 8 7 8 12 0 17 -7 16
-27z"/>
<path d="M1840 1959 c0 -6 -4 -7 -10 -4 -5 3 -10 1 -10 -4 0 -10 20 -15 48
-12 6 1 12 -3 12 -9 0 -5 6 -9 13 -7 6 1 11 -3 10 -10 -2 -7 6 -10 17 -8 18 3
25 -5 21 -27 0 -5 4 -8 9 -8 7 0 8 -13 4 -35 -4 -23 -2 -35 5 -35 6 0 11 13
11 29 0 16 5 31 12 33 18 6 -19 54 -55 71 -61 30 -87 37 -87 26z"/>
<path d="M1715 1930 c3 -5 13 -10 21 -10 8 0 12 5 9 10 -3 6 -13 10 -21 10 -8
0 -12 -4 -9 -10z"/>
<path d="M1910 1830 c0 -13 5 -18 15 -14 8 4 15 10 15 14 0 4 -7 10 -15 14
-10 4 -15 -1 -15 -14z"/>
<path d="M2622 440 c0 -14 2 -19 5 -12 2 6 2 18 0 25 -3 6 -5 1 -5 -13z"/>
<path d="M2380 433 c-16 -11 -19 -18 -10 -27 8 -8 13 -7 19 3 7 11 13 9 29 -7
19 -19 30 -21 124 -23 9 0 20 -9 23 -20 4 -11 12 -18 18 -16 7 2 19 -2 28 -9
14 -13 16 -10 17 26 2 44 2 44 -30 29 -19 -8 -34 -6 -71 10 -26 11 -47 16 -47
11 0 -20 -20 -9 -26 14 -7 28 -41 32 -74 9z"/>
<path d="M2494 439 c-3 -5 1 -9 10 -9 8 0 22 -3 32 -7 11 -4 15 -3 11 4 -9 15
-46 23 -53 12z"/>
<path d="M350 370 c0 -5 5 -10 11 -10 5 0 7 5 4 10 -3 6 -8 10 -11 10 -2 0 -4
-4 -4 -10z"/>
<path d="M650 261 c0 -5 5 -13 10 -16 6 -3 10 -2 10 4 0 5 -4 13 -10 16 -5 3
-10 2 -10 -4z"/>
<path d="M726 255 c4 -8 11 -15 16 -15 6 0 5 6 -2 15 -7 8 -14 15 -16 15 -2 0
-1 -7 2 -15z"/>
<path d="M487 234 c-7 -7 33 -64 45 -64 5 0 6 5 3 10 -3 6 -2 10 4 10 5 0 11
-6 14 -12 2 -7 8 -9 13 -5 5 5 1 13 -9 18 -9 6 -17 15 -17 20 0 6 6 7 13 3 8
-5 8 -3 -1 7 -11 12 -15 11 -27 -4 -8 -12 -15 -14 -20 -8 -3 6 -1 11 5 11 6 0
8 5 5 10 -7 11 -19 13 -28 4z"/>
<path d="M730 180 c0 -5 5 -10 10 -10 6 0 10 5 10 10 0 6 -4 10 -10 10 -5 0
-10 -4 -10 -10z"/>
<path d="M566 151 c-6 -9 5 -20 34 -36 11 -6 10 -3 -3 12 -9 11 -14 23 -10 26
3 4 1 7 -5 7 -6 0 -13 -4 -16 -9z"/>
<path d="M626 87 c3 -10 9 -15 12 -12 3 3 0 11 -7 18 -10 9 -11 8 -5 -6z"/>
<path d="M674 56 c-18 -18 13 -56 46 -56 20 0 29 6 33 22 7 27 7 28 -35 37
-21 5 -37 4 -44 -3z"/>
</g>
</svg>
